<?xml version="1.0" encoding="UTF-8"?>
<svg version="1.1" xmlns="http://www.w3.org/2000/svg" width="1024" height="1024">
<path d="M0 0 C2.40137465 0.00560518 4.80275276 0.00987091 7.20413208 0.01286316 C13.48079132 0.0242393 19.75723756 0.05364336 26.03381348 0.0869751 C32.45610677 0.1178329 38.87843496 0.13140188 45.30078125 0.14648438 C57.86988178 0.1785207 70.43883574 0.22903991 83.0078125 0.29296875 C83.91441791 4.12710036 84.10166155 7.61742639 84.02954102 11.55200195 C84.00944473 12.79291092 83.98934845 14.03381989 83.96864319 15.31233215 C83.9414513 16.65614046 83.91414039 17.99994636 83.88671875 19.34375 C83.86239678 20.72665091 83.83855428 22.10956033 83.81517029 23.49247742 C83.75253582 27.12079611 83.68341154 30.74896291 83.61291504 34.37713623 C83.54204439 38.08403648 83.47733978 41.79104385 83.41210938 45.49804688 C83.28336333 52.76313938 83.14775799 60.02808243 83.0078125 67.29296875 C81.94007599 67.3010556 80.87233948 67.30914246 79.77224731 67.31747437 C69.67998393 67.39516327 59.5878516 67.48295894 49.49575996 67.58049583 C44.30807259 67.63031254 39.12040414 67.67664329 33.93261719 67.71484375 C28.92044938 67.75188202 23.90844582 67.79829099 18.89641953 67.85103226 C16.99002862 67.86947811 15.08360265 67.88462173 13.17715836 67.89631271 C-0.52614988 67.95033568 -0.52614988 67.95033568 -13.9921875 70.29296875 C-10.13210718 72.4069733 -6.7007706 72.68911524 -2.3671875 72.85546875 C-1.6244458 72.8922876 -0.8817041 72.92910645 -0.11645508 72.96704102 C2.25798807 73.08415932 4.63272841 73.1897252 7.0078125 73.29296875 C30.07069158 74.31374561 47.9910193 77.2220681 65.0078125 94.29296875 C76.76145724 107.57066173 80.60437617 125.99262229 80.0078125 143.29296875 C77.6978125 143.62296875 75.3878125 143.95296875 73.0078125 144.29296875 C72.86085938 145.11474609 72.86085938 145.11474609 72.7109375 145.953125 C68.85942325 166.37279105 62.38518718 184.47904377 45.0078125 197.29296875 C32.0329398 206.10468086 18.75808389 209.45768851 3.23291016 209.42236328 C2.27764435 209.4241156 1.32237854 209.42586792 0.33816528 209.42767334 C-2.80061693 209.43205394 -5.93934227 209.42916866 -9.078125 209.42578125 C-11.26290905 209.42645504 -13.44769302 209.4274257 -15.63247681 209.42868042 C-20.20014157 209.43015196 -24.76778674 209.42801903 -29.33544922 209.42333984 C-35.20361566 209.41762257 -41.07173656 209.42093758 -46.93990135 209.42691231 C-51.44528551 209.4305153 -55.95065876 209.4293809 -60.45604324 209.42678452 C-62.62110016 209.42611557 -64.78615806 209.42694255 -66.95121384 209.42926407 C-69.96538701 209.43178848 -72.97948482 209.42795394 -75.99365234 209.42236328 C-76.89543213 209.42438751 -77.79721191 209.42641174 -78.72631836 209.42849731 C-84.87792085 209.4072354 -84.87792085 209.4072354 -85.9921875 208.29296875 C-86.1387868 206.11098169 -86.21970312 203.92452723 -86.2734375 201.73828125 C-86.29184692 201.08092987 -86.31025635 200.42357849 -86.32922363 199.74630737 C-86.3881303 197.63695452 -86.44085208 195.52751864 -86.4921875 193.41796875 C-86.55989462 190.64957027 -86.63363934 187.88142656 -86.7109375 185.11328125 C-86.74123047 183.87852051 -86.77152344 182.64375977 -86.80273438 181.37158203 C-86.86199577 178.25460993 -86.86199577 178.25460993 -87.9921875 175.29296875 C-88.45367188 175.97101563 -88.91515625 176.6490625 -89.390625 177.34765625 C-99.96935057 192.44220144 -112.70071701 203.84130967 -130.9921875 208.29296875 C-131.63708633 208.45715302 -132.28198517 208.62133728 -132.94642639 208.79049683 C-143.11143909 211.0160774 -153.50342305 210.68869335 -163.85546875 210.77734375 C-165.97772303 210.80117283 -168.09997139 210.82553473 -170.22221375 210.85040283 C-174.65078984 210.90009731 -179.07936537 210.94294381 -183.50805664 210.98095703 C-189.17851189 211.03024404 -194.84859323 211.09739403 -200.51879597 211.16970444 C-204.89305825 211.22341373 -209.26737733 211.26737136 -213.64177513 211.30841827 C-215.73295576 211.3292727 -217.82410792 211.3532256 -219.91521645 211.38036346 C-222.83451844 211.41685449 -225.75363937 211.44012135 -228.6730957 211.45996094 C-229.53191345 211.47336014 -230.3907312 211.48675934 -231.27557373 211.50056458 C-232.07568375 211.50333908 -232.87579376 211.50611359 -233.70014954 211.50897217 C-234.73232841 211.51890261 -234.73232841 211.51890261 -235.78535938 211.52903366 C-237.9921875 211.29296875 -237.9921875 211.29296875 -243.9921875 209.29296875 C-243.6621875 187.84296875 -243.3321875 166.39296875 -242.9921875 144.29296875 C-238.62026236 142.10700618 -232.79994597 142.88082653 -227.93847656 142.73535156 C-225.79192245 142.66949463 -223.64608808 142.59116671 -221.5 142.51171875 C-213.54766166 142.24587358 -205.79097833 142.36830099 -197.85644531 143.06103516 C-194.80663462 143.34677604 -194.80663462 143.34677604 -190.9921875 143.29296875 C-192.03117188 142.99003906 -193.07015625 142.68710937 -194.140625 142.375 C-211.72888654 137.14246051 -226.0963937 129.88714205 -235.6484375 113.44140625 C-241.51052733 102.32067702 -244.08975827 91.16817743 -244.2421875 78.60546875 C-244.26796875 77.32285156 -244.29375 76.04023438 -244.3203125 74.71875 C-243.95928302 70.94943029 -243.20682054 70.17870271 -240.9921875 67.29296875 C-240.5351309 64.73059518 -240.21352316 62.31080043 -239.9921875 59.73046875 C-238.3290831 44.20230708 -233.31125158 31.27492836 -222.9921875 19.29296875 C-222.3321875 19.29296875 -221.6721875 19.29296875 -220.9921875 19.29296875 C-220.9921875 18.63296875 -220.9921875 17.97296875 -220.9921875 17.29296875 C-206.23134507 4.8247678 -189.52756317 1.12174945 -170.71484375 1.16357422 C-169.23761589 1.16094574 -169.23761589 1.16094574 -167.73054504 1.15826416 C-164.5052408 1.15389504 -161.27999221 1.1567643 -158.0546875 1.16015625 C-155.8055012 1.15948222 -153.55631496 1.15851137 -151.30712891 1.15725708 C-146.6101817 1.15578718 -141.91325358 1.1579135 -137.21630859 1.16259766 C-131.18229165 1.16832088 -125.14831894 1.16499515 -119.11430359 1.15902519 C-114.47853254 1.15542285 -109.84277209 1.15655619 -105.20700073 1.15915298 C-102.9805399 1.1598218 -100.75407813 1.15899539 -98.52761841 1.15667343 C-95.42984432 1.15414945 -92.33214358 1.15798267 -89.234375 1.16357422 C-88.30768509 1.16154999 -87.38099518 1.15952576 -86.42622375 1.15744019 C-80.10645541 1.17870084 -80.10645541 1.17870084 -78.9921875 2.29296875 C-78.8318319 5.32103919 -78.73258302 8.32882329 -78.67578125 11.359375 C-78.65500015 12.26799789 -78.63421906 13.17662079 -78.61280823 14.11277771 C-78.54721078 17.02692821 -78.4883807 19.94117179 -78.4296875 22.85546875 C-78.38651196 24.82618166 -78.34289799 26.79688501 -78.29882812 28.76757812 C-78.19151907 33.60927863 -78.09028075 38.45107312 -77.9921875 43.29296875 C-77.74186768 42.63707764 -77.49154785 41.98118652 -77.23364258 41.30541992 C-70.32673626 23.56459825 -59.45101985 12.77032907 -42.32937622 4.70368958 C-28.80380235 -1.01393994 -14.38633629 -0.09925282 0 0 Z M-143.8359375 67.34716797 C-147.23381479 67.39953282 -150.63083671 67.47236029 -154.02804565 67.55743408 C-156.03095833 67.60490633 -158.0341692 67.63920233 -160.03735352 67.67333984 C-161.27155029 67.7089502 -162.50574707 67.74456055 -163.77734375 67.78125 C-165.43068726 67.82052612 -165.43068726 67.82052612 -167.11743164 67.8605957 C-170.26097649 68.33339553 -171.66928055 69.17698034 -173.9921875 71.29296875 C-169.57843429 73.45803085 -165.36023099 73.67120458 -160.53515625 73.8203125 C-158.847001 73.89117584 -157.1588501 73.96214292 -155.47070312 74.03320312 C-152.84297016 74.13310121 -150.21515108 74.22921639 -147.5871582 74.32202148 C-117.88276191 75.4085956 -117.88276191 75.4085956 -106.2421875 81.85546875 C-104.57929687 82.75458984 -104.57929687 82.75458984 -102.8828125 83.671875 C-101.92890625 84.20683594 -100.975 84.74179687 -99.9921875 85.29296875 C-99.22390625 85.63199219 -98.455625 85.97101563 -97.6640625 86.3203125 C-95.9921875 87.29296875 -95.9921875 87.29296875 -94.9921875 90.29296875 C-93.909375 91.37578125 -93.909375 91.37578125 -92.8046875 92.48046875 C-89.45578696 95.82936929 -86.77182144 99.47287074 -83.9921875 103.29296875 C-82.99404548 104.62769355 -81.99455839 105.96141688 -80.9921875 107.29296875 C-81.45491352 104.79691783 -81.96505689 102.38129069 -82.7109375 99.953125 C-85.81733701 89.62434664 -85.73347273 79.00175914 -85.9921875 68.29296875 C-90.72215544 67.35883715 -95.3120539 67.14122404 -100.1171875 67.16796875 C-100.81972656 67.16410156 -101.52226563 67.16023438 -102.24609375 67.15625 C-106.188907 67.15109382 -106.188907 67.15109382 -110.046875 67.86328125 C-113.09271575 68.53605732 -115.92321309 67.75158724 -118.9921875 67.29296875 C-122.01376526 67.14163764 -125.02984064 67.15055234 -128.0546875 67.16796875 C-129.37521118 67.17413208 -129.37521118 67.17413208 -130.72241211 67.18041992 C-135.09389926 67.21508173 -139.46476348 67.28553175 -143.8359375 67.34716797 Z M-80.9921875 107.29296875 C-79.9921875 109.29296875 -79.9921875 109.29296875 -79.9921875 109.29296875 Z M-79.9921875 109.29296875 C-79.37570408 112.61023667 -78.55522556 115.7611209 -77.5546875 118.98046875 C-75.33037791 126.91820101 -74.7571493 135.11237727 -73.9921875 143.29296875 C-75.4771875 143.78796875 -75.4771875 143.78796875 -76.9921875 144.29296875 C-75.35311162 145.93204463 -73.48612 145.42036461 -71.2265625 145.42236328 C-70.20618896 145.42551544 -69.18581543 145.4286676 -68.13452148 145.43191528 C-67.01505127 145.42989105 -65.89558105 145.42786682 -64.7421875 145.42578125 C-63.00207397 145.42721634 -63.00207397 145.42721634 -61.22680664 145.42868042 C-58.74837185 145.42936377 -56.2699353 145.42749882 -53.79150391 145.42333984 C-50.09142721 145.41810905 -46.39147853 145.42321797 -42.69140625 145.4296875 C-27.10249276 145.43361378 -11.5624161 145.05516407 4.0078125 144.29296875 C4.0078125 143.96296875 4.0078125 143.63296875 4.0078125 143.29296875 C2.67943359 143.27109497 2.67943359 143.27109497 1.32421875 143.2487793 C-48.87508327 142.32484573 -48.87508327 142.32484573 -66.9921875 126.29296875 C-71.92743197 121.03667207 -75.92301501 115.83414263 -78.9921875 109.29296875 C-79.3221875 109.29296875 -79.6521875 109.29296875 -79.9921875 109.29296875 Z M-177.9921875 143.29296875 C-173.9921875 144.29296875 -173.9921875 144.29296875 -173.9921875 144.29296875 Z M-172.9921875 143.29296875 C-172.9921875 143.62296875 -172.9921875 143.95296875 -172.9921875 144.29296875 C-168.0421875 144.29296875 -163.0921875 144.29296875 -157.9921875 144.29296875 C-157.9921875 143.96296875 -157.9921875 143.63296875 -157.9921875 143.29296875 C-162.9421875 143.29296875 -167.8921875 143.29296875 -172.9921875 143.29296875 Z M-156.9921875 143.29296875 C-156.9921875 143.62296875 -156.9921875 143.95296875 -156.9921875 144.29296875 C-155.0121875 144.29296875 -153.0321875 144.29296875 -150.9921875 144.29296875 C-150.9921875 143.96296875 -150.9921875 143.63296875 -150.9921875 143.29296875 C-152.9721875 143.29296875 -154.9521875 143.29296875 -156.9921875 143.29296875 Z " fill="#FAF106" transform="translate(915.9921875,399.70703125)"/>
<path d="M0 0 C0.33 0.66 0.66 1.32 1 2 C1.66136113 1.92912957 2.32272226 1.85825914 3.00412464 1.78524113 C9.8378003 1.10175756 16.57367812 0.86175469 23.43823242 0.88647461 C24.52248505 0.88632858 25.60673767 0.88618256 26.72384644 0.8860321 C30.2677417 0.88672254 33.8115828 0.89447381 37.35546875 0.90234375 C39.82839428 0.90421102 42.30132018 0.90563346 44.77424622 0.90663147 C51.25307249 0.9104323 57.73187601 0.92024158 64.21069336 0.93133545 C70.83381848 0.94160213 77.45694732 0.94614031 84.08007812 0.95117188 C97.05339507 0.96186622 110.02669632 0.97871832 123 1 C124.00803456 4.02410367 124.13244156 6.06792064 124.14526367 9.23071289 C124.15483345 10.83366966 124.15483345 10.83366966 124.16459656 12.4690094 C124.16626579 14.20331459 124.16626579 14.20331459 124.16796875 15.97265625 C124.17129715 17.16547714 124.17462555 18.35829803 124.17805481 19.58726501 C124.18312329 22.11668512 124.18546316 24.64611193 124.18530273 27.17553711 C124.18747752 31.02273816 124.20560196 34.86964703 124.22460938 38.71679688 C124.22754574 41.17708236 124.22952891 43.6373692 124.23046875 46.09765625 C124.23765427 47.23969009 124.24483978 48.38172394 124.25224304 49.55836487 C124.24916641 50.64906784 124.24608978 51.73977081 124.24291992 52.86352539 C124.24434494 53.80933975 124.24576996 54.75515411 124.24723816 55.72962952 C123.90903138 60.20329763 122.8798621 64.6006895 122 69 C92.63 69 63.26 69 33 69 C32.67 70.98 32.34 72.96 32 75 C32.94769257 74.99555878 33.89538513 74.99111755 34.87179565 74.98654175 C43.78914104 74.94605389 52.70646786 74.91604367 61.6238842 74.89637566 C66.20876766 74.88592434 70.79357711 74.87174065 75.37841797 74.84912109 C79.80042374 74.82744064 84.22235819 74.81544154 88.64441299 74.81024551 C90.33417001 74.80654111 92.02392298 74.79930763 93.71364975 74.78853989 C96.07464889 74.77408857 98.4353507 74.77201936 100.79638672 74.77294922 C101.49985229 74.76575867 102.20331787 74.75856812 102.92810059 74.75115967 C107.77189568 74.77189568 107.77189568 74.77189568 110 77 C110.24723816 79.46691895 110.24723816 79.46691895 110.24291992 82.61132812 C110.24599655 83.78594604 110.24907318 84.96056396 110.25224304 86.17077637 C110.24146477 88.08171082 110.24146477 88.08171082 110.23046875 90.03125 C110.23001053 91.33324341 110.22955231 92.63523682 110.2290802 93.97668457 C110.22751515 96.73402225 110.21922409 99.49123013 110.20581055 102.24853516 C110.18882063 105.78620144 110.18499621 109.32372501 110.18575573 112.86142731 C110.1854187 116.23055406 110.17658152 119.59963381 110.16796875 122.96875 C110.16685593 124.2427063 110.1657431 125.5166626 110.16459656 126.82922363 C110.15821671 128.00384155 110.15183685 129.17845947 110.14526367 130.38867188 C110.14145187 131.4263269 110.13764008 132.46398193 110.13371277 133.53308105 C110 136 110 136 109 138 C83.92 138 58.84 138 33 138 C32.67 139.98 32.34 141.96 32 144 C32.98892242 143.98525131 33.97784485 143.97050262 34.99673462 143.95530701 C44.32482797 143.81689625 53.65298742 143.68418829 62.98124123 143.5570364 C67.77676599 143.49148681 72.57224519 143.42394143 77.36767578 143.35180664 C81.99711878 143.28224261 86.62660798 143.21795814 91.25617599 143.15730476 C93.02079293 143.13326364 94.78538518 143.10733316 96.54994583 143.07946587 C99.02495723 143.04070408 101.49997184 143.00871317 103.97509766 142.97827148 C105.0648288 142.95885246 105.0648288 142.95885246 106.17657471 142.93904114 C110.23384913 142.89712454 114.02073544 143.20581425 118 144 C118.02312659 152.45767334 118.0409167 160.91533356 118.05181217 169.37303066 C118.05704031 173.29988658 118.06413669 177.22672094 118.07543945 181.15356445 C118.0862708 184.94014257 118.09227736 188.7266999 118.09487724 192.51329231 C118.09673105 193.96104319 118.10035081 195.40879288 118.10573006 196.85653496 C118.11294367 198.87757135 118.11340808 200.89862848 118.11352539 202.91967773 C118.115746 204.07217514 118.11796661 205.22467255 118.12025452 206.41209412 C118 209 118 209 117 210 C115.07638373 210.09660952 113.14916934 210.12187168 111.22312927 210.12025452 C109.96804565 210.12162918 108.71296204 210.12300385 107.41984558 210.12442017 C106.01614356 210.12088055 104.61244178 210.11724574 103.20874023 210.11352539 C101.74063112 210.11324353 100.27252187 210.11340124 98.80441284 210.1139679 C94.80665343 210.1142559 90.80892376 210.10835874 86.81117129 210.10139394 C82.63779267 210.09516085 78.46441344 210.09455664 74.29103088 210.09336853 C66.38267208 210.09025508 58.47432703 210.08204151 50.5659743 210.07201904 C41.56491506 210.06085832 32.56385518 210.05534756 23.56279075 210.05032361 C5.04185248 210.03985891 -13.47907216 210.02205879 -32 210 C-32.33 203.07 -32.66 196.14 -33 189 C-35.10375 190.7634375 -35.10375 190.7634375 -37.25 192.5625 C-47.39431584 200.615351 -57.67671689 205.45532531 -70 209 C-70.85851562 209.2475 -71.71703125 209.495 -72.6015625 209.75 C-78.076043 211.14280069 -83.37321696 211.21144487 -89 211 C-89.33 211.66 -89.66 212.32 -90 213 C-90 212.34 -90 211.68 -90 211 C-90.8971875 211.04640625 -91.794375 211.0928125 -92.71875 211.140625 C-102.78097294 211.43168104 -111.39603958 209.95427293 -121 207 C-121.90363281 206.72285156 -122.80726563 206.44570313 -123.73828125 206.16015625 C-145.13280957 198.56177222 -162.55955204 180.33850894 -175 162 C-176.09441406 160.41445313 -176.09441406 160.41445313 -177.2109375 158.796875 C-192.36037357 136.39515275 -199.50092218 113.18226971 -194.4855957 86.21899414 C-188.47226397 57.73179713 -170.55149891 33.06350545 -146.41015625 17.1328125 C-123.06552676 2.25705491 -94.28064313 -3.18602064 -67.12890625 2.7734375 C-52.48999828 6.8383969 -39.90671945 13.71014197 -28 23 C-27.67 15.74 -27.34 8.48 -27 1 C-17.4375 1.0625 -17.4375 1.0625 -14.46655273 1.09008789 C-9.53049598 1.10560221 -4.86436375 0.84742688 0 0 Z M-28 47 C-28.66 48.65 -29.32 50.3 -30 52 C-30.66 52 -31.32 52 -32 52 C-33.56258933 53.84085866 -35.00609007 55.68537591 -36.4375 57.625 C-37.32860645 58.80921172 -38.22056596 59.99278189 -39.11328125 61.17578125 C-39.58072754 61.79791504 -40.04817383 62.42004883 -40.52978516 63.06103516 C-43.01946664 66.34450416 -45.5728414 69.57751055 -48.125 72.8125 C-48.61025146 73.42883301 -49.09550293 74.04516602 -49.59545898 74.68017578 C-50.72965034 76.12063368 -51.86472197 77.5603984 -53 79 C-57.0272775 77.4822822 -59.63768049 75.68985561 -63 73 C-74.60820055 65.10227784 -86.04538611 62.20402653 -100 64 C-107.07057962 65.9090565 -113.47479792 69.19547646 -119 74 C-120.25436187 76.63222962 -120.25436187 76.63222962 -121 79 C-122.485 79.495 -122.485 79.495 -124 80 C-131.08580593 90.5971697 -132.61927895 103.35236321 -130.53515625 115.76953125 C-128.06355825 125.05630479 -123.1234234 133.65857092 -115 139 C-103.98558676 145.26476673 -92.91993977 146.92333135 -80.44921875 144.234375 C-73.47854738 141.81719469 -67.97319581 138.12321658 -62.39941406 133.39111328 C-59.24237039 130.73664831 -57.03832357 129.64076094 -53 129 C-52.51756836 129.80667114 -52.51756836 129.80667114 -52.02539062 130.62963867 C-48.35862539 136.75813199 -44.68322032 142.88138204 -41 149 C-40.55865723 149.7336377 -40.11731445 150.46727539 -39.66259766 151.22314453 C-38.55021919 153.06809789 -37.43269852 154.90978751 -36.3125 156.75 C-35.37857422 158.28914063 -35.37857422 158.28914063 -34.42578125 159.859375 C-33.95527344 160.56578125 -33.48476563 161.2721875 -33 162 C-32.67 162 -32.34 162 -32 162 C-32 137.91 -32 113.82 -32 89 C-30.35 89 -28.7 89 -27 89 C-27 75.14 -27 61.28 -27 47 C-27.33 47 -27.66 47 -28 47 Z " fill="#FAF106" transform="translate(551,400)"/>
<path d="M0 0 C3.36371994 1.69526821 4.40171465 4.82640644 5.92163086 8.10400391 C6.26689316 8.82230377 6.61215546 9.54060364 6.96788025 10.28067017 C10.2583619 17.19851039 13.29994038 24.22391507 16.26885986 31.28457642 C17.87073293 35.09257 19.49068709 38.89287414 21.10913086 42.69384766 C21.44033936 43.4725975 21.77154785 44.25134735 22.11279297 45.05369568 C25.58135584 53.19402927 29.15191614 61.28835986 32.73803711 69.37744141 C36.48264256 77.82462308 40.21687031 86.27507332 43.87475586 94.76025391 C44.17651733 95.45980698 44.47827881 96.15936005 44.78918457 96.88011169 C46.22324011 100.20656764 47.65344175 103.5346143 49.07836914 106.86499023 C49.58094238 108.03312256 50.08351562 109.20125488 50.60131836 110.40478516 C51.04000244 111.42950928 51.47868652 112.4542334 51.93066406 113.51000977 C53.10514733 116.2198929 53.10514733 116.2198929 55.11303711 119.06494141 C55.21100586 118.30052734 55.30897461 117.53611328 55.40991211 116.74853516 C59.22867243 89.39172628 69.78147087 68.63516896 89.11303711 49.06494141 C90.18618164 47.95505859 90.18618164 47.95505859 91.28100586 46.82275391 C95.98629616 42.2903853 101.27743011 38.95776576 106.86303711 35.62744141 C107.59675537 35.18956299 108.33047363 34.75168457 109.08642578 34.30053711 C112.80378245 32.15697049 115.83970516 30.77444499 120.11303711 30.06494141 C120.44303711 29.40494141 120.77303711 28.74494141 121.11303711 28.06494141 C123.51928711 27.28369141 123.51928711 27.28369141 126.61303711 26.56494141 C128.25852539 26.18208984 128.25852539 26.18208984 129.93725586 25.79150391 C130.98526367 25.55173828 132.03327148 25.31197266 133.11303711 25.06494141 C133.86198242 24.86642578 134.61092773 24.66791016 135.38256836 24.46337891 C158.21739228 18.61277392 183.4704972 23.31791948 203.67553711 34.95556641 C208.7369078 37.99801257 213.4484112 41.45058065 218.11303711 45.06494141 C219.42014648 46.01433594 219.42014648 46.01433594 220.75366211 46.98291016 C221.57350586 47.58748047 222.39334961 48.19205078 223.23803711 48.81494141 C223.96249023 49.34603516 224.68694336 49.87712891 225.43334961 50.42431641 C227.33476644 52.28151424 227.74055249 53.46883648 228.11303711 56.06494141 C227.45303711 56.06494141 226.79303711 56.06494141 226.11303711 56.06494141 C225.88229492 56.59861328 225.65155273 57.13228516 225.41381836 57.68212891 C223.7133595 60.79708357 221.52643078 63.4434695 219.30053711 66.18994141 C213.64648498 73.26942489 208.33287786 80.57135017 203.05834961 87.93603516 C202.31439941 88.97219971 202.31439941 88.97219971 201.55541992 90.02929688 C200.59679275 91.38221383 199.65322043 92.74592958 198.7253418 94.12011719 C195.42390647 98.96131829 195.42390647 98.96131829 192.11303711 100.06494141 C189.80053711 98.58837891 189.80053711 98.58837891 187.11303711 96.43994141 C176.35087169 88.35063967 165.08353254 83.96789736 151.48803711 85.62744141 C139.98822174 87.80085149 131.96338577 93.23758089 125.36303711 102.81494141 C119.83156282 112.32615627 118.47581556 123.54482208 120.80444336 134.24072266 C124.3721525 145.9887858 131.03432824 155.09889734 141.67553711 161.37744141 C150.60814852 165.44732944 161.85187873 166.36404415 171.11303711 163.06494141 C179.20370057 159.93849389 185.49303833 155.46646307 191.83691406 149.67260742 C195.82499084 146.06494141 195.82499084 146.06494141 199.11303711 146.06494141 C199.11303711 146.72494141 199.11303711 147.38494141 199.11303711 148.06494141 C199.77303711 148.06494141 200.43303711 148.06494141 201.11303711 148.06494141 C201.57452148 149.02271484 202.03600586 149.98048828 202.51147461 150.96728516 C208.94931559 164.17147969 215.94765592 177.11174254 224.64038086 188.98681641 C225.12635742 189.67259766 225.61233398 190.35837891 226.11303711 191.06494141 C227.0121582 192.31017578 227.0121582 192.31017578 227.92944336 193.58056641 C229.11303711 196.06494141 229.11303711 196.06494141 228.59350586 198.08837891 C223.26535984 205.20194588 215.75248388 210.54304191 208.42553711 215.43994141 C207.8207251 215.84422363 207.21591309 216.24850586 206.59277344 216.66503906 C199.98212259 220.9647803 193.23760728 224.21140542 185.73803711 226.68994141 C184.53405273 227.09470703 183.33006836 227.49947266 182.08959961 227.91650391 C159.32832401 234.80341227 136.04509074 231.78404249 115.11303711 221.06494141 C104.12225969 214.99624242 93.20520733 206.73380955 85.11303711 197.06494141 C85.11303711 196.40494141 85.11303711 195.74494141 85.11303711 195.06494141 C84.12303711 194.73494141 83.13303711 194.40494141 82.11303711 194.06494141 C79.30498602 191.8673362 77.89324383 189.01625051 76.27319336 185.88134766 C74.82856949 183.6195628 73.05315844 181.90785416 71.11303711 180.06494141 C71.54616211 181.22123047 71.54616211 181.22123047 71.98803711 182.40087891 C72.35928711 183.40376953 72.73053711 184.40666016 73.11303711 185.43994141 C73.48428711 186.43767578 73.85553711 187.43541016 74.23803711 188.46337891 C75.11303711 191.06494141 75.11303711 191.06494141 75.11303711 193.06494141 C75.77303711 193.39494141 76.43303711 193.72494141 77.11303711 194.06494141 C78.04272461 195.99853516 78.04272461 195.99853516 78.98803711 198.50244141 C79.33092773 199.39576172 79.67381836 200.28908203 80.02709961 201.20947266 C80.38545898 202.15177734 80.74381836 203.09408203 81.11303711 204.06494141 C81.85953359 205.94133902 82.60935216 207.81641959 83.36303711 209.68994141 C83.94657863 211.14819145 84.52994735 212.60651067 85.11303711 214.06494141 C75.31779333 218.69359891 65.28311265 222.70726761 55.23803711 226.75244141 C53.54784579 227.4351684 51.857741 228.11810964 50.16772461 228.80126953 C41.89384289 232.1443052 41.89384289 232.1443052 38.90509033 233.33822632 C37.37680202 233.95797921 35.86216348 234.6112174 34.35083008 235.27124023 C32.11303711 236.06494141 32.11303711 236.06494141 28.11303711 236.06494141 C26.93842156 232.9637243 25.77473255 229.85851899 24.61303711 226.75244141 C24.27916992 225.87136719 23.94530273 224.99029297 23.60131836 224.08251953 C23.12758789 222.81118164 23.12758789 222.81118164 22.64428711 221.51416016 C22.35102539 220.73387451 22.05776367 219.95358887 21.75561523 219.1496582 C21.11303711 217.06494141 21.11303711 217.06494141 21.11303711 214.06494141 C1.64303711 214.06494141 -17.82696289 214.06494141 -37.88696289 214.06494141 C-38.87696289 217.03494141 -39.86696289 220.00494141 -40.88696289 223.06494141 C-42.18025208 226.09196472 -42.18025208 226.09196472 -43.88696289 228.06494141 C-46.71537781 228.66621399 -46.71537781 228.66621399 -50.19433594 228.63256836 C-51.49545822 228.6321907 -52.79658051 228.63181305 -54.13713074 228.63142395 C-55.5576574 228.60589049 -56.97817432 228.57981051 -58.39868164 228.55322266 C-59.85169764 228.54389605 -61.30472938 228.53677921 -62.75776672 228.53178406 C-66.58044926 228.51270158 -70.40218044 228.46359201 -74.2244873 228.40826416 C-78.12552011 228.35709743 -82.02670681 228.33427565 -85.92797852 228.30908203 C-93.58140683 228.25547277 -101.23405152 228.17014705 -108.88696289 228.06494141 C-108.3286377 226.88770508 -107.7703125 225.71046875 -107.19506836 224.49755859 C-103.41783477 216.53014025 -99.64428635 208.56107521 -95.89477539 200.58056641 C-95.57660355 199.90355179 -95.2584317 199.22653717 -94.93061829 198.52900696 C-93.61449623 195.72794193 -92.29882423 192.9266685 -90.98483276 190.12460327 C-87.51671285 182.72937591 -84.03958446 175.34137884 -80.44555664 168.00634766 C-79.93428223 166.95866211 -79.42300781 165.91097656 -78.89624023 164.83154297 C-77.96350673 162.92704155 -77.02299469 161.02632042 -76.07299805 159.13037109 C-73.71771875 154.31262835 -72.64166999 150.40311359 -71.88696289 145.06494141 C-70.67983799 142.21832749 -69.15781055 139.56664174 -67.63696289 136.87744141 C-63.39369679 129.09080557 -59.52467894 121.18567695 -55.82446289 113.12744141 C-54.71913051 110.72243067 -53.61371634 108.3174579 -52.50805664 105.91259766 C-52.221492 105.28883743 -51.93492737 104.66507721 -51.63967896 104.02241516 C-48.30754936 96.78265202 -44.8943887 89.58135834 -41.48287964 82.37875366 C-36.03483953 70.87629054 -30.61142584 59.3636496 -25.26196289 47.81494141 C-24.23202948 45.59358051 -23.20208144 43.3722264 -22.17211914 41.15087891 C-21.65020996 40.02520508 -21.12830078 38.89953125 -20.59057617 37.73974609 C-20.3177179 37.15124878 -20.04485962 36.56275146 -19.76373291 35.9564209 C-19.14908211 34.63041824 -18.53463856 33.30431951 -17.92034912 31.97814941 C-15.85655162 27.52320799 -13.78816913 23.07044198 -11.71417236 18.62023926 C-11.04228681 17.17656433 -10.37197592 15.73215541 -9.70330811 14.2869873 C-8.77508893 12.28136983 -7.841452 10.27836196 -6.90649414 8.27587891 C-6.10369019 6.54797119 -6.10369019 6.54797119 -5.28466797 4.78515625 C-2.87682405 0.09900831 -2.87682405 0.09900831 0 0 Z M-2.88696289 140.06494141 C-3.21696289 141.05494141 -3.54696289 142.04494141 -3.88696289 143.06494141 C-2.89696289 142.73494141 -1.90696289 142.40494141 -0.88696289 142.06494141 C-0.88696289 141.40494141 -0.88696289 140.74494141 -0.88696289 140.06494141 C-1.54696289 140.06494141 -2.20696289 140.06494141 -2.88696289 140.06494141 Z " fill="#FAF107" transform="translate(148.886962890625,379.93505859375)"/>
<path d="M0 0 C43.56 0 87.12 0 132 0 C132 15.84 132 31.68 132 48 C101.97 48 71.94 48 41 48 C41 56.91 41 65.82 41 75 C66.74 75 92.48 75 119 75 C119 89.19 119 103.38 119 118 C96.56 118 74.12 118 51 118 C51 114.37 51 110.74 51 107 C38.79 107 26.58 107 14 107 C14 98.09 14 89.18 14 80 C9.38 80 4.76 80 0 80 C0 53.6 0 27.2 0 0 Z " fill="#010100" transform="translate(533,410)"/>
<path d="M0 0 C0.22042969 0.94359375 0.22042969 0.94359375 0.4453125 1.90625 C2.55937358 9.97370146 5.75675899 16.08993231 12.8125 20.8125 C21.73737588 25.87106515 31.04436714 27.00832476 41.171875 27.46484375 C42.7395946 27.54339525 44.30730259 27.62217867 45.875 27.70117188 C48.30782025 27.82022166 50.74069541 27.93706982 53.17382812 28.04956055 C84.15473088 29.49982417 84.15473088 29.49982417 96 42 C102.94605599 50.53229474 106.28528487 60.10059421 107 71 C112.445 70.01 112.445 70.01 118 69 C116.86858938 85.97115927 109.57477292 100.66481766 97 112 C80.68077334 124.64229381 63.58590695 125.30187193 43.80078125 125.1953125 C41.75384154 125.19157645 39.70690003 125.18873228 37.65995789 125.18673706 C32.3055822 125.17914718 26.9513172 125.15953919 21.59698486 125.1373291 C15.15490252 125.1131472 8.7127829 125.10406755 2.27066803 125.09242249 C-7.486298 125.07311165 -17.24302176 125.0347567 -27 125 C-27 109.16 -27 93.32 -27 77 C-20.56113281 76.96261719 -14.12226562 76.92523437 -7.48828125 76.88671875 C-3.40947841 76.85644326 0.66928056 76.82529814 4.74804688 76.79101562 C11.22222698 76.73668237 17.69632031 76.68557267 24.1706543 76.65356445 C29.3903377 76.62755766 34.60972989 76.58717358 39.82923317 76.53681374 C41.82069082 76.52012731 43.81219887 76.50862411 45.80371666 76.50238609 C48.59300652 76.49276441 51.38154835 76.46472811 54.1706543 76.43237305 C54.99424438 76.43380814 55.81783447 76.43524323 56.66638184 76.4367218 C61.25183459 76.36148357 64.270638 75.96391039 68 73 C69.42041821 70.15916359 69.31452272 68.14522722 69 65 C66.89177836 61.70017483 65.16242349 61.04901014 61.4140625 59.91796875 C53.29397514 58.22162397 44.78065654 58.61134133 36.51538086 58.54370117 C18.26220433 58.36606893 0.83663964 55.90445007 -13.1328125 43.03515625 C-24.22776627 31.37068965 -28.31354105 16.81640423 -28 1 C-18.65190221 0.33566818 -9.37877608 -0.1598655 0 0 Z " fill="#010100" transform="translate(709,475)"/>
<path d="M0 0 C0.29390625 1.03447266 0.29390625 1.03447266 0.59375 2.08984375 C3.25881263 10.46411383 6.96617385 16.79309206 14.5078125 21.59765625 C26.67339788 27.68044894 40.81720984 27.4412091 54.13696289 28.02905273 C68.86208097 28.69829727 81.1904346 30.1904346 92 41 C99.30326208 49.5624452 102.50302908 59.90098288 103 71 C107.455 70.01 107.455 70.01 112 69 C110.97561988 87.580136 104.20725869 100.69996892 90.5625 113.3125 C86.46163449 116.64975607 81.9156634 119.08340067 77 121 C76.35723618 121.25105499 75.71447235 121.50210999 75.05223083 121.76077271 C65.13708039 125.0398524 54.89257268 124.37534317 44.58203125 124.29296875 C42.51267303 124.28736483 40.44331079 124.2830985 38.37394714 124.28010559 C32.96032481 124.26871953 27.54694873 124.23930673 22.13342285 124.20599365 C16.5961439 124.17515749 11.05882467 124.16157144 5.52148438 124.14648438 C-5.31911787 124.11443049 -16.15953836 124.06331056 -27 124 C-27.28722473 118.71651644 -27.57197536 113.43290732 -27.85449219 108.14916992 C-27.95082684 106.35388642 -28.04782266 104.55863826 -28.14550781 102.76342773 C-28.28627006 100.17440791 -28.42460842 97.58526786 -28.5625 94.99609375 C-28.60624756 94.20101913 -28.64999512 93.40594452 -28.69506836 92.58677673 C-28.93401123 88.05001721 -29.04228568 83.5430673 -29 79 C-28.07451355 78.99191315 -27.1490271 78.98382629 -26.19549561 78.97549438 C-17.42829735 78.89720983 -8.66124563 78.80981996 0.10576248 78.71247292 C4.61181881 78.66275249 9.1178544 78.61642251 13.62402344 78.578125 C17.98134393 78.54096305 22.33847992 78.4945241 26.69564056 78.44193649 C28.34917682 78.42355526 30.00275238 78.40838887 31.65634918 78.39665604 C47.92521232 78.86590185 47.92521232 78.86590185 63 74 C64.09901231 71.03495638 64.21843446 68.14209573 64 65 C62.05608313 61.70379314 60.38976852 61.12976497 56.78515625 59.9296875 C49.64521796 58.22916209 42.16297457 58.6118664 34.86132812 58.54370117 C17.72531951 58.35353327 0.93009212 55.92452186 -12 43.6875 C-22.81618012 31.84789653 -28.28385207 16.99033325 -28 1 C-18.6587308 0.38673965 -9.36749815 -0.1820896 0 0 Z " fill="#000000" transform="translate(866,475)"/>
<path d="M0 0 C2.13233133 0.00560698 4.26466657 0.00987186 6.39700317 0.01286316 C11.96347033 0.02422524 17.52969635 0.05361653 23.09606934 0.0869751 C29.79934202 0.12331077 36.5026961 0.13687831 43.20603943 0.15433502 C53.34846397 0.18326018 63.49036115 0.24080757 73.6328125 0.29296875 C73.6328125 16.46296875 73.6328125 32.63296875 73.6328125 49.29296875 C67.373125 49.33035156 61.1134375 49.36773437 54.6640625 49.40625 C50.69007703 49.43653859 46.71613586 49.46769231 42.7421875 49.50195312 C36.43947623 49.55620891 30.1368526 49.60732178 23.83398438 49.6394043 C18.75044563 49.66548111 13.66720239 49.70591468 8.58384705 49.75615501 C6.64790024 49.7727941 4.71190236 49.78432675 2.77589417 49.79058266 C0.05666383 49.80025593 -2.66181552 49.82835357 -5.38085938 49.8605957 C-6.17496216 49.85916061 -6.96906494 49.85772552 -7.78723145 49.85624695 C-13.65504334 49.95415391 -19.33185011 50.82103754 -24.03911591 54.65456104 C-26.3203207 57.46882462 -26.45612275 60.79712948 -26.3671875 64.29296875 C-25.61019385 67.22133246 -25.61019385 67.22133246 -23.3671875 69.29296875 C-17.43661136 71.95246405 -12.27043892 72.82390471 -5.8203125 73.13671875 C-4.92785828 73.19194702 -4.03540405 73.24717529 -3.11590576 73.30407715 C-0.28355145 73.47883062 2.54932474 73.63775551 5.3828125 73.79296875 C24.95218016 74.87305249 43.53829287 75.91474752 57.6328125 91.29296875 C65.68973026 101.78606915 69.85597103 113.1266153 69.6328125 126.29296875 C66.0028125 126.29296875 62.3728125 126.29296875 58.6328125 126.29296875 C58.230625 124.86017578 58.230625 124.86017578 57.8203125 123.3984375 C53.76127764 109.70719207 47.1840102 99.20015338 34.4140625 92.05078125 C24.11100752 87.08064557 12.92114776 86.84745894 1.6953125 86.29296875 C-27.09615506 84.86721981 -27.09615506 84.86721981 -36.1796875 76.79296875 C-36.9015625 75.96796875 -37.6234375 75.14296875 -38.3671875 74.29296875 C-38.9240625 73.67421875 -39.4809375 73.05546875 -40.0546875 72.41796875 C-43.23410438 67.27034141 -43.45877255 62.18963691 -43.3671875 56.29296875 C-44.37136719 56.43734375 -45.37554688 56.58171875 -46.41015625 56.73046875 C-55.11703029 57.93001598 -63.55691071 58.56451838 -72.3671875 58.29296875 C-73.12443542 43.79307347 -68.72645969 29.55911969 -59.3671875 18.29296875 C-42.08169622 1.39969283 -22.85905211 -0.17813724 0 0 Z " fill="#010100" transform="translate(916.3671875,408.70703125)"/>
<path d="M0 0 C0.66 0 1.32 0 2 0 C3.65404839 3.6521452 5.30361815 7.30628427 6.94995117 10.96191406 C7.7685983 12.77762845 8.59026864 14.59197888 9.41210938 16.40625 C13.63895625 25.77862178 17.65100717 35.23618783 21.64154053 44.71127319 C24.95769096 52.57146271 28.33394901 60.40320499 31.75390625 68.21875 C32.23187149 69.31261017 32.70983673 70.40647034 33.20228577 71.53347778 C35.13915397 75.9647515 37.07698947 80.39557107 39.02319336 84.82275391 C44.4327992 97.1371419 49.68266183 109.4869354 54.51953125 122.0390625 C54.92619522 123.09395874 55.33285919 124.14885498 55.75184631 125.23571777 C64 146.92578629 64 146.92578629 64 155 C38.26 155 12.52 155 -14 155 C-11.63928357 147.91785072 -9.1374276 141.69883191 -6 135 C3.9 134.505 3.9 134.505 14 134 C12.1914858 129.45833687 10.37901615 124.91871748 8.55566406 120.38305664 C7.93633524 118.83879629 7.3194628 117.29354849 6.70507812 115.74731445 C5.8228129 113.52813282 4.9318465 111.31262343 4.0390625 109.09765625 C3.76502594 108.4028566 3.49098938 107.70805695 3.20864868 106.99220276 C1.91665476 103.31489478 1.91665476 103.31489478 -1 101 C-1.66 102.98 -2.32 104.96 -3 107 C-5.64 112.94 -8.28 118.88 -11 125 C-26.18 125 -41.36 125 -57 125 C-51.64182109 112.41639801 -46.11575205 99.9822782 -40.125 87.6875 C-35.19770621 77.57354617 -30.37805069 67.41976293 -25.69555664 57.18945312 C-22.79559621 50.86366507 -19.85472829 44.56012193 -16.87109375 38.2734375 C-16.51454712 37.52098251 -16.15800049 36.76852753 -15.79064941 35.99327087 C-12.91574412 29.92666129 -12.91574412 29.92666129 -11.52813721 27.02310181 C-7.28221413 18.13806712 -3.37099493 9.26203472 0 0 Z " fill="#010100" transform="translate(147,398)"/>
<path d="M0 0 C2.04551047 0.00373685 4.09102274 0.00658064 6.13653564 0.00857544 C11.48267687 0.01615902 16.82870694 0.03576138 22.17480469 0.0579834 C28.6094025 0.08218262 35.04403778 0.09124796 41.47866821 0.10289001 C51.22023078 0.12218946 60.96155013 0.16054875 70.703125 0.1953125 C70.703125 16.0353125 70.703125 31.8753125 70.703125 48.1953125 C64.88816406 48.23269531 59.07320312 48.27007812 53.08203125 48.30859375 C49.38603874 48.3388894 45.69009346 48.37004769 41.99414062 48.40429688 C36.13487193 48.45851115 30.27569665 48.50962542 24.41625977 48.54174805 C19.68931739 48.56786267 14.96269078 48.60832232 10.23594475 48.65849876 C8.43759035 48.67511246 6.63918141 48.68666083 4.84076118 48.69292641 C-9.43564911 48.08225937 -9.43564911 48.08225937 -21.95384216 53.67378235 C-24.56204962 56.6286366 -24.50997529 59.26740736 -24.72265625 63.125 C-24.09913349 66.15680791 -22.64776393 67.22185315 -20.296875 69.1953125 C-9.25552035 73.18409932 3.0944465 72.87673375 14.68334961 73.27929688 C33.25142395 73.95689513 49.08396972 76.24379949 62.4140625 90.44140625 C70.73430674 100.4512564 76.20799873 112.98781565 75.703125 126.1953125 C72.073125 126.1953125 68.443125 126.1953125 64.703125 126.1953125 C64.41179687 125.30070313 64.12046875 124.40609375 63.8203125 123.484375 C58.80680867 108.69611529 52.64262924 97.75082559 38.33984375 90.4140625 C30.053834 86.58408466 21.26512176 86.12229148 12.28515625 85.80078125 C10.68420832 85.73196299 9.08329765 85.66227354 7.48242188 85.59179688 C5.00594777 85.48512175 2.52975011 85.38330672 0.05249023 85.29663086 C-26.48605157 84.34532417 -26.48605157 84.34532417 -35.296875 76.1953125 C-39.85313894 69.44205554 -41.45358128 64.34403883 -41.296875 56.1953125 C-42.52921875 56.2675 -43.7615625 56.3396875 -45.03125 56.4140625 C-54.12828929 56.93003045 -63.18088251 57.35907284 -72.296875 57.1953125 C-73.2867853 43.08909079 -68.23424671 28.70704587 -59.109375 18.0078125 C-42.58991347 0.61459433 -22.57035422 -0.12188845 0 0 Z " fill="#020100" transform="translate(757.296875,409.8046875)"/>
<path d="M0 0 C21.96782634 -0.65380436 42.71770068 5.90068643 59.625 20.1953125 C60.97547649 21.51127937 62.31435041 22.83967494 63.625 24.1953125 C62.32734874 26.97985583 60.89815368 29.26772863 58.9375 31.62890625 C58.40793701 32.27214844 57.87837402 32.91539062 57.33276367 33.578125 C56.76920166 34.25617188 56.20563965 34.93421875 55.625 35.6328125 C49.8046269 42.70814502 44.16156841 49.8965406 38.625 57.1953125 C35.16138504 55.92147863 32.34786248 54.40139584 29.3125 52.3203125 C17.27304433 44.99974929 1.81229942 43.20277129 -11.8125 46.390625 C-23.94382316 50.20015636 -33.46089894 57.23718583 -39.45776367 68.55078125 C-43.70819577 77.04033207 -45.75025075 84.44689194 -45.6875 93.8828125 C-45.68186035 94.76694824 -45.6762207 95.65108398 -45.67041016 96.56201172 C-45.45658025 108.13211492 -42.78430468 116.56216595 -36.375 126.1953125 C-36.045 126.8553125 -35.715 127.5153125 -35.375 128.1953125 C-38.1108678 129.76312715 -40.86541599 131.29468882 -43.625 132.8203125 C-44.40230469 133.26632812 -45.17960937 133.71234375 -45.98046875 134.171875 C-47.11162109 134.790625 -47.11162109 134.790625 -48.265625 135.421875 C-48.95688477 135.80939941 -49.64814453 136.19692383 -50.36035156 136.59619141 C-52.375 137.1953125 -52.375 137.1953125 -54.52709961 136.42211914 C-63.90255826 130.19782535 -71.08397454 111.86232706 -73.375 101.1953125 C-73.86592849 97.19983507 -74.17773672 93.21540211 -74.375 89.1953125 C-75.31859375 89.411875 -75.31859375 89.411875 -76.28125 89.6328125 C-81.78066619 90.82545697 -86.75166943 91.403584 -92.375 91.1953125 C-91.08875599 63.6963027 -78.86617841 42.10356494 -58.93554688 23.58300781 C-55.33470427 20.38100697 -51.45949028 17.73305318 -47.375 15.1953125 C-46.58867187 14.67582031 -45.80234375 14.15632813 -44.9921875 13.62109375 C-31.53371271 5.0310383 -15.83880414 0.91659746 0 0 Z " fill="#010100" transform="translate(457.375,409.8046875)"/>
<path d="M0 0 C1.12921875 1.02867187 1.12921875 1.02867187 2.28125 2.078125 C2.28125 7.00839148 1.13849026 7.98511285 -1.90625 11.765625 C-2.81453154 12.90827471 -3.72204169 14.05153788 -4.62890625 15.1953125 C-5.12148926 15.81116211 -5.61407227 16.42701172 -6.12158203 17.06152344 C-9.08082624 20.79789721 -11.95594293 24.59896097 -14.84375 28.390625 C-15.97111148 29.86607088 -17.0986955 31.34134676 -18.2265625 32.81640625 C-19.0573186 33.90362525 -19.88805878 34.99085643 -20.71875 36.078125 C-22.20375 35.583125 -22.20375 35.583125 -23.71875 35.078125 C-23.71875 34.418125 -23.71875 33.758125 -23.71875 33.078125 C-24.358125 32.830625 -24.9975 32.583125 -25.65625 32.328125 C-27.36568118 31.63039799 -29.06855604 30.91303279 -30.73828125 30.125 C-42.92138576 24.40683536 -57.0262408 22.72772464 -70.09375 26.578125 C-83.65050247 31.8481263 -92.94132761 41.97451337 -98.71875 55.078125 C-103.00328199 69.23316584 -101.72114282 83.65305486 -95.71875 97.078125 C-94.72115604 98.74623293 -93.72177629 100.41327785 -92.71875 102.078125 C-92.71875 102.738125 -92.71875 103.398125 -92.71875 104.078125 C-95.81522525 105.61499982 -98.92200282 107.12977782 -102.03125 108.640625 C-102.91232422 109.07826172 -103.79339844 109.51589844 -104.70117188 109.96679688 C-105.54873047 110.37607422 -106.39628906 110.78535156 -107.26953125 111.20703125 C-108.43995972 111.78046265 -108.43995972 111.78046265 -109.6340332 112.36547852 C-111.71875 113.078125 -111.71875 113.078125 -114.71875 112.078125 C-124.0829934 100.7668607 -131.49868052 82.89680488 -130.71875 68.078125 C-132.1728125 68.573125 -132.1728125 68.573125 -133.65625 69.078125 C-138.01641837 70.34686252 -142.21429566 70.26198028 -146.71875 70.078125 C-146.08669442 49.28349645 -138.83310574 31.17643549 -125.71875 15.078125 C-125.05488281 14.25054687 -124.39101562 13.42296875 -123.70703125 12.5703125 C-110.75105418 -2.70864012 -92.55803431 -14.18742148 -72.71875 -17.921875 C-71.85507812 -18.10105469 -70.99140625 -18.28023438 -70.1015625 -18.46484375 C-43.20076167 -22.09924756 -21.97925884 -14.83066494 0 0 Z " fill="#010100" transform="translate(360.71875,430.921875)"/>
<path d="M0 0 C3.63 0 7.26 0 11 0 C11 8.58 11 17.16 11 26 C22.88 26 34.76 26 47 26 C47 32.6 47 39.2 47 46 C43.535 46.495 43.535 46.495 40 47 C39.67 49.64 39.34 52.28 39 55 C69.69 55 100.38 55 132 55 C132 70.51 132 86.02 132 102 C88.44 102 44.88 102 0 102 C0 68.34 0 34.68 0 0 Z " fill="#030300" transform="translate(528,499)"/>
<path d="M0 0 C0.30292969 1.01578125 0.60585937 2.0315625 0.91796875 3.078125 C4.47936811 14.86743609 8.31050672 25.79821003 15.0625 36.1875 C15.48619873 36.8482251 15.90989746 37.5089502 16.34643555 38.18969727 C18.54877561 41.57247018 18.54877561 41.57247018 21.79052734 43.8269043 C24.93288429 44.07308453 26.89739656 43.03018917 29.75390625 41.7265625 C30.85541016 41.2315625 31.95691406 40.7365625 33.09179688 40.2265625 C34.23712891 39.69804688 35.38246094 39.16953125 36.5625 38.625 C38.83425394 37.59551196 41.10637257 36.56682817 43.37890625 35.5390625 C44.3851001 35.07709473 45.39129395 34.61512695 46.42797852 34.13916016 C49 33 49 33 52 32 C53.91015625 33.29296875 53.91015625 33.29296875 56.0625 35.1875 C60.74622928 39.00443522 65.28102977 41.14645753 71 43 C71.66773438 43.22558594 72.33546875 43.45117188 73.0234375 43.68359375 C84.95647833 47.21479971 98.09636044 44.83241133 108.9375 39.125 C112.042924 37.32141314 114.80868493 35.43641182 117.5 33.0625 C118.325 32.381875 119.15 31.70125 120 31 C123.60399711 32.20133237 123.75760078 32.86611011 125.453125 36.12109375 C125.90437744 36.96986084 126.35562988 37.81862793 126.82055664 38.69311523 C127.29227295 39.59876221 127.76398926 40.50440918 128.25 41.4375 C131.72043492 47.94794166 135.17335923 54.15830608 139.66015625 60.02734375 C141.1709505 62.25169097 142.08376324 64.47925293 143 67 C127.72806635 81.89272085 108.53198783 91.80377845 87 93 C86.11054688 93.05285156 85.22109375 93.10570312 84.3046875 93.16015625 C61.75464351 93.85169093 42.702334 84.40651518 26.49609375 69.36328125 C25.67238281 68.58339844 24.84867188 67.80351563 24 67 C23.18660156 66.25105469 22.37320313 65.50210938 21.53515625 64.73046875 C4.89082386 48.87496728 -7.86878945 27.50530941 -13 5 C-13 4.01 -13 3.02 -13 2 C-11.58461283 1.66127487 -10.16762037 1.32925376 -8.75 1 C-7.56664062 0.7215625 -7.56664062 0.7215625 -6.359375 0.4375 C-4 0 -4 0 0 0 Z " fill="#010100" transform="translate(223,509)"/>
<path d="M0 0 C14.85 0 29.7 0 45 0 C37 20 37 20 33 29 C62.37 29 91.74 29 122 29 C132.23076923 49.46153846 132.23076923 49.46153846 134 54 C133.67 54.99 133.34 55.98 133 57 C130.44398883 58.2612433 127.96736802 59.33343359 125.31640625 60.35546875 C124.54570297 60.66196854 123.77499969 60.96846832 122.98094177 61.28425598 C121.34962878 61.93065877 119.71617837 62.57168921 118.08081055 63.20776367 C115.57202668 64.18379369 113.06982053 65.17529386 110.56835938 66.16992188 C108.98473522 66.79518395 107.40076205 67.41956294 105.81640625 68.04296875 C104.68822227 68.48820137 104.68822227 68.48820137 103.5372467 68.94242859 C98.23494479 71 98.23494479 71 96 71 C93.36 64.73 90.72 58.46 88 52 C64.9 51.67 41.8 51.34 18 51 C17.01 53.97 16.02 56.94 15 60 C14.01 61.98 13.02 63.96 12 66 C-2.19 66 -16.38 66 -31 66 C-30.10409478 61.52047388 -28.99335572 58.58128841 -27.0078125 54.5390625 C-26.70586472 53.91985931 -26.40391693 53.30065613 -26.09281921 52.66268921 C-25.10882283 50.647495 -24.11696764 48.63628059 -23.125 46.625 C-22.0991271 44.52980921 -21.07513942 42.43370349 -20.05116272 40.33758545 C-19.36252455 38.92842818 -18.67318135 37.51961524 -17.98313904 36.11114502 C-14.42535317 28.84506727 -10.95240704 21.53902757 -7.50244141 14.22119141 C-7.09558105 13.36444824 -6.6887207 12.50770508 -6.26953125 11.625 C-5.92510986 10.89539063 -5.58068848 10.16578125 -5.22583008 9.4140625 C-3.6008366 6.213916 -1.78068553 3.11619968 0 0 Z " fill="#010000" transform="translate(87,533)"/>
<path d="M0 0 C0.268125 0.969375 0.53625 1.93875 0.8125 2.9375 C5.0350511 17.61474746 11.88239091 37.00241484 24.28833008 46.80883789 C26.95319171 48.32466338 26.95319171 48.32466338 29.69140625 47.22314453 C30.63886719 46.69833496 31.58632813 46.17352539 32.5625 45.6328125 C33.60664063 45.07722656 34.65078125 44.52164063 35.7265625 43.94921875 C36.80679688 43.34722656 37.88703125 42.74523437 39 42.125 C41.13894364 40.94832575 43.28457125 39.78369911 45.4375 38.6328125 C46.38496094 38.10574707 47.33242188 37.57868164 48.30859375 37.03564453 C51.41948725 35.83858264 52.86584259 35.9939576 56 37 C58.0703125 38.0859375 58.0703125 38.0859375 60.125 39.375 C71.06968408 45.6058845 82.90750534 46.53028991 95.125 43.875 C102.48632377 41.81772938 109.07250215 38.378592 115 33.5625 C115.66 33.046875 116.32 32.53125 117 32 C121.10757377 33.36919126 122.09807357 36.10429433 124.125 39.6875 C124.91996522 41.05319679 125.71689285 42.41775288 126.515625 43.78125 C126.92361328 44.47992187 127.33160156 45.17859375 127.75195312 45.8984375 C129.71838283 49.20967124 131.78722069 52.45183206 133.875 55.6875 C134.42824951 56.55024536 134.42824951 56.55024536 134.99267578 57.43041992 C136.50840522 59.77649034 138.0108085 62.01273361 139.8203125 64.14453125 C141 66 141 66 141.07421875 67.91796875 C139.3937129 71.17509463 136.66743828 73.12665226 133.8125 75.3125 C133.1839209 75.795979 132.5553418 76.27945801 131.90771484 76.77758789 C112.49075609 91.29794885 90.41033596 94.59028639 66.67529297 91.71875 C62.54642461 90.99478404 58.83548514 89.66062825 55 88 C54.37657715 87.7421875 53.7531543 87.484375 53.11083984 87.21875 C26.09948803 75.85385691 4.24631319 48.98277588 -6.8125 22.4375 C-9.47610398 15.83629782 -11.96003687 9.07174927 -13 2 C-11.44643726 0.44643726 -9.77383198 0.65655569 -7.625 0.4375 C-6.83351563 0.35371094 -6.04203125 0.26992188 -5.2265625 0.18359375 C-3 0 -3 0 0 0 Z " fill="#010100" transform="translate(376,509)"/>
<path d="M0 0 C0.598125 0.309375 1.19625 0.61875 1.8125 0.9375 C6.06615823 3.00356257 10.04666723 3.29817619 14.6875 3.5625 C15.38939453 3.60568359 16.09128906 3.64886719 16.81445312 3.69335938 C18.54275206 3.7991736 20.2713511 3.90006581 22 4 C22 4.33 22 4.66 22 5 C19.43721301 5.05420701 16.87558517 5.09377007 14.3125 5.125 C13.59126953 5.14175781 12.87003906 5.15851563 12.12695312 5.17578125 C7.99444537 5.21352105 4.62352873 5.09236267 1 3 C0.67 2.01 0.34 1.02 0 0 Z " fill="#F5E607" transform="translate(899,469)"/>
<path d="M0 0 C0.66 0.33 1.32 0.66 2 1 C0.02 1.99 0.02 1.99 -2 3 C-1.34 2.01 -0.68 1.02 0 0 Z M-2 3 C-3.44253657 6.36591866 -5.33264727 8.51047079 -8 11 C-8.99 10.67 -9.98 10.34 -11 10 C-9.88121617 8.82737096 -8.75476949 7.66204862 -7.625 6.5 C-6.68527344 5.52546875 -6.68527344 5.52546875 -5.7265625 4.53125 C-4 3 -4 3 -2 3 Z " fill="#F0EB06" transform="translate(280,462)"/>
<path d="M0 0 C-2.6860286 1.79068573 -4.6626589 2.66055791 -7.6875 3.625 C-8.49574219 3.88539063 -9.30398437 4.14578125 -10.13671875 4.4140625 C-10.75160156 4.60742188 -11.36648437 4.80078125 -12 5 C-11 2 -11 2 -8.8125 0.8125 C-5.74609689 -0.07334979 -3.17561845 -0.14770318 0 0 Z " fill="#F3EA0A" transform="translate(196,609)"/>
<path d="M0 0 C1.53214888 3.06429776 1.22938548 5.6165642 1 9 C-0.375 11.9375 -0.375 11.9375 -2 14 C-2.66 14 -3.32 14 -4 14 C-3.690625 13.154375 -3.38125 12.30875 -3.0625 11.4375 C-1.98553267 7.95319392 -1.49484328 4.60528672 -1 1 C-0.67 0.67 -0.34 0.34 0 0 Z " fill="#EFE30F" transform="translate(78,524)"/>
<path d="M0 0 C0 0.99 0 1.98 0 3 C-2.90600261 4.25664978 -4.79604584 5 -8 5 C-8 4.34 -8 3.68 -8 3 C-2.25 0 -2.25 0 0 0 Z " fill="#F5EB09" transform="translate(496,601)"/>
<path d="M0 0 C-0.66 1.32 -1.32 2.64 -2 4 C-4.31 3.67 -6.62 3.34 -9 3 C-4.5 0 -4.5 0 0 0 Z " fill="#F4EB0B" transform="translate(881,403)"/>
<path d="M0 0 C0.33 0 0.66 0 1 0 C1 2.31 1 4.62 1 7 C-0.98 7.99 -0.98 7.99 -3 9 C-2.01 6.03 -1.02 3.06 0 0 Z " fill="#F1E80F" transform="translate(142,388)"/>
<path d="M0 0 C0.99 0 1.98 0 3 0 C2.67 0.66 2.34 1.32 2 2 C1.34 1.34 0.68 0.68 0 0 Z " fill="#F8E905" transform="translate(587,469)"/>
<path d="M0 0 C3 1 3 1 3 1 Z " fill="#FAE907" transform="translate(654,539)"/>
<path d="M0 0 C3 1 3 1 3 1 Z " fill="#FAE908" transform="translate(663,469)"/>
<path d="M0 0 C3 1 3 1 3 1 Z " fill="#F9EA07" transform="translate(635,469)"/>
<path d="" fill="#F4E70A" transform="translate(0,0)"/>
<path d="M0 0 C2 1 2 1 2 1 Z " fill="#E1D213" transform="translate(522,611)"/>
<path d="" fill="#E5D314" transform="translate(0,0)"/>
<path d="M0 0 C2 1 2 1 2 1 Z " fill="#E9D911" transform="translate(158,595)"/>
<path d="" fill="#F4E505" transform="translate(0,0)"/>
<path d="M0 0 C2 1 2 1 2 1 Z " fill="#F4E10B" transform="translate(368,553)"/>
<path d="M0 0 C2 1 2 1 2 1 Z " fill="#F3DD08" transform="translate(885,543)"/>
<path d="" fill="#F6E50B" transform="translate(0,0)"/>
<path d="M0 0 C2 1 2 1 2 1 Z " fill="#F9E807" transform="translate(615,539)"/>
<path d="M0 0 C2 1 2 1 2 1 Z " fill="#F7E606" transform="translate(585,539)"/>
<path d="" fill="#F6E50E" transform="translate(0,0)"/>
<path d="M0 0 C2 1 2 1 2 1 Z " fill="#E4D61B" transform="translate(85,504)"/>
<path d="" fill="#F9E80B" transform="translate(0,0)"/>
<path d="M0 0 C2 1 2 1 2 1 Z " fill="#F4E808" transform="translate(824,469)"/>
<path d="M0 0 C2 1 2 1 2 1 Z " fill="#FBEB07" transform="translate(631,469)"/>
<path d="M0 0 C2 1 2 1 2 1 Z " fill="#F9EA07" transform="translate(615,469)"/>
<path d="M0 0 C2 1 2 1 2 1 Z " fill="#F9E907" transform="translate(612,469)"/>
<path d="M0 0 C2 1 2 1 2 1 Z " fill="#E1D01B" transform="translate(403,416)"/>
<path d="" fill="#5E5A54" transform="translate(0,0)"/>
<path d="" fill="#605954" transform="translate(0,0)"/>
<path d="" fill="#5E5B54" transform="translate(0,0)"/>
<path d="" fill="#5D5953" transform="translate(0,0)"/>
<path d="" fill="#5F5A54" transform="translate(0,0)"/>
<path d="" fill="#5B544F" transform="translate(0,0)"/>
<path d="" fill="#58544C" transform="translate(0,0)"/>
<path d="" fill="#57524A" transform="translate(0,0)"/>
<path d="" fill="#4F4945" transform="translate(0,0)"/>
<path d="" fill="#4F4A3F" transform="translate(0,0)"/>
<path d="" fill="#5C573B" transform="translate(0,0)"/>
<path d="" fill="#E3D216" transform="translate(0,0)"/>
<path d="" fill="#DBCE17" transform="translate(0,0)"/>
<path d="" fill="#E3D316" transform="translate(0,0)"/>
<path d="" fill="#DDCD17" transform="translate(0,0)"/>
<path d="" fill="#E4D712" transform="translate(0,0)"/>
<path d="" fill="#E4D514" transform="translate(0,0)"/>
<path d="" fill="#E6D217" transform="translate(0,0)"/>
<path d="" fill="#E7D713" transform="translate(0,0)"/>
<path d="" fill="#E8D912" transform="translate(0,0)"/>
<path d="" fill="#E7D611" transform="translate(0,0)"/>
<path d="" fill="#E5D512" transform="translate(0,0)"/>
<path d="" fill="#E4D612" transform="translate(0,0)"/>
<path d="" fill="#E5D411" transform="translate(0,0)"/>
<path d="" fill="#E4D611" transform="translate(0,0)"/>
<path d="" fill="#E5D611" transform="translate(0,0)"/>
<path d="" fill="#E5D512" transform="translate(0,0)"/>
<path d="" fill="#E6D611" transform="translate(0,0)"/>
<path d="" fill="#E3D312" transform="translate(0,0)"/>
<path d="" fill="#E3D213" transform="translate(0,0)"/>
<path d="" fill="#E3D413" transform="translate(0,0)"/>
<path d="" fill="#E2D315" transform="translate(0,0)"/>
<path d="" fill="#DCCD18" transform="translate(0,0)"/>
<path d="" fill="#DDCE17" transform="translate(0,0)"/>
<path d="" fill="#E6D617" transform="translate(0,0)"/>
<path d="" fill="#DECF18" transform="translate(0,0)"/>
<path d="" fill="#DECC1C" transform="translate(0,0)"/>
<path d="" fill="#E1D416" transform="translate(0,0)"/>
<path d="" fill="#DFCC19" transform="translate(0,0)"/>
<path d="" fill="#E5D410" transform="translate(0,0)"/>
<path d="" fill="#E8D716" transform="translate(0,0)"/>
<path d="" fill="#E0D314" transform="translate(0,0)"/>
<path d="" fill="#EFDF09" transform="translate(0,0)"/>
<path d="" fill="#E9DB0F" transform="translate(0,0)"/>
<path d="" fill="#EADA12" transform="translate(0,0)"/>
<path d="" fill="#EAD90F" transform="translate(0,0)"/>
<path d="" fill="#E9D910" transform="translate(0,0)"/>
<path d="" fill="#E8DA10" transform="translate(0,0)"/>
<path d="" fill="#DDD020" transform="translate(0,0)"/>
<path d="" fill="#F2E106" transform="translate(0,0)"/>
<path d="" fill="#EEDF0D" transform="translate(0,0)"/>
<path d="" fill="#EFDB0D" transform="translate(0,0)"/>
<path d="" fill="#F0DF10" transform="translate(0,0)"/>
<path d="" fill="#F5E207" transform="translate(0,0)"/>
<path d="" fill="#F1DC0D" transform="translate(0,0)"/>
<path d="" fill="#F2E203" transform="translate(0,0)"/>
<path d="" fill="#EEE00F" transform="translate(0,0)"/>
<path d="" fill="#E3D71C" transform="translate(0,0)"/>
<path d="" fill="#EEDC11" transform="translate(0,0)"/>
<path d="" fill="#F3DE0F" transform="translate(0,0)"/>
<path d="" fill="#EFDE10" transform="translate(0,0)"/>
<path d="" fill="#F4E311" transform="translate(0,0)"/>
<path d="" fill="#F3E406" transform="translate(0,0)"/>
<path d="" fill="#F7E405" transform="translate(0,0)"/>
<path d="" fill="#F3E10A" transform="translate(0,0)"/>
<path d="" fill="#F5E40C" transform="translate(0,0)"/>
<path d="" fill="#F4E308" transform="translate(0,0)"/>
<path d="" fill="#F4E40B" transform="translate(0,0)"/>
<path d="" fill="#F6E708" transform="translate(0,0)"/>
<path d="" fill="#F1E40B" transform="translate(0,0)"/>
<path d="" fill="#FAE80A" transform="translate(0,0)"/>
<path d="" fill="#FBE707" transform="translate(0,0)"/>
<path d="" fill="#FAE907" transform="translate(0,0)"/>
<path d="" fill="#FAE806" transform="translate(0,0)"/>
<path d="" fill="#FAE807" transform="translate(0,0)"/>
<path d="" fill="#F8E605" transform="translate(0,0)"/>
<path d="" fill="#F9E807" transform="translate(0,0)"/>
<path d="" fill="#FAE606" transform="translate(0,0)"/>
<path d="" fill="#F8E505" transform="translate(0,0)"/>
<path d="" fill="#F6E606" transform="translate(0,0)"/>
<path d="" fill="#F5E40D" transform="translate(0,0)"/>
<path d="" fill="#F7E50A" transform="translate(0,0)"/>
<path d="" fill="#F2E30B" transform="translate(0,0)"/>
<path d="" fill="#F2E011" transform="translate(0,0)"/>
<path d="" fill="#F5E507" transform="translate(0,0)"/>
<path d="" fill="#F5E50D" transform="translate(0,0)"/>
<path d="" fill="#F6E40F" transform="translate(0,0)"/>
<path d="" fill="#F8E70A" transform="translate(0,0)"/>
<path d="" fill="#E6D616" transform="translate(0,0)"/>
<path d="" fill="#F6E20F" transform="translate(0,0)"/>
<path d="" fill="#EEDC0E" transform="translate(0,0)"/>
<path d="" fill="#F8E60C" transform="translate(0,0)"/>
<path d="" fill="#F7E80B" transform="translate(0,0)"/>
<path d="" fill="#F2E30E" transform="translate(0,0)"/>
<path d="" fill="#F6E509" transform="translate(0,0)"/>
<path d="" fill="#F6E809" transform="translate(0,0)"/>
<path d="" fill="#F5E50A" transform="translate(0,0)"/>
<path d="" fill="#FCEF07" transform="translate(0,0)"/>
<path d="" fill="#F5E60E" transform="translate(0,0)"/>
<path d="" fill="#F2E409" transform="translate(0,0)"/>
<path d="" fill="#F3E009" transform="translate(0,0)"/>
<path d="" fill="#F9EC0D" transform="translate(0,0)"/>
<path d="" fill="#FAE80A" transform="translate(0,0)"/>
<path d="" fill="#F6E808" transform="translate(0,0)"/>
<path d="" fill="#F9E707" transform="translate(0,0)"/>
<path d="" fill="#F9E809" transform="translate(0,0)"/>
<path d="" fill="#F4E307" transform="translate(0,0)"/>
<path d="" fill="#F9E907" transform="translate(0,0)"/>
<path d="" fill="#FAEA07" transform="translate(0,0)"/>
<path d="" fill="#F7E806" transform="translate(0,0)"/>
<path d="" fill="#F8EA09" transform="translate(0,0)"/>
<path d="" fill="#F9E905" transform="translate(0,0)"/>
<path d="" fill="#FAE906" transform="translate(0,0)"/>
<path d="" fill="#FBEB08" transform="translate(0,0)"/>
<path d="" fill="#F6E805" transform="translate(0,0)"/>
<path d="" fill="#F9E70B" transform="translate(0,0)"/>
<path d="" fill="#F8E80B" transform="translate(0,0)"/>
<path d="" fill="#F6E90C" transform="translate(0,0)"/>
<path d="" fill="#F8E70A" transform="translate(0,0)"/>
<path d="" fill="#F8E60B" transform="translate(0,0)"/>
<path d="" fill="#F6E60F" transform="translate(0,0)"/>
<path d="" fill="#F6E509" transform="translate(0,0)"/>
<path d="" fill="#F1E10D" transform="translate(0,0)"/>
<path d="" fill="#F6EB0B" transform="translate(0,0)"/>
<path d="" fill="#E0D519" transform="translate(0,0)"/>
<path d="" fill="#F5E80F" transform="translate(0,0)"/>
<path d="" fill="#EDDC12" transform="translate(0,0)"/>
<path d="" fill="#F5E40B" transform="translate(0,0)"/>
<path d="" fill="#DCD114" transform="translate(0,0)"/>
<path d="" fill="#EDDC15" transform="translate(0,0)"/>
<path d="" fill="#E6D812" transform="translate(0,0)"/>
<path d="" fill="#E9DB12" transform="translate(0,0)"/>
<path d="" fill="#E0D317" transform="translate(0,0)"/>
<path d="" fill="#D9CA1F" transform="translate(0,0)"/>
<path d="" fill="#E7D618" transform="translate(0,0)"/>
<path d="" fill="#E1D318" transform="translate(0,0)"/>
<path d="" fill="#E3D31C" transform="translate(0,0)"/>
<path d="" fill="#DDCE1D" transform="translate(0,0)"/>
<path d="" fill="#DCCF1E" transform="translate(0,0)"/>
<path d="" fill="#DED11D" transform="translate(0,0)"/>
<path d="" fill="#EAD818" transform="translate(0,0)"/>
<path d="" fill="#DBCF1C" transform="translate(0,0)"/>
<path d="" fill="#D0C123" transform="translate(0,0)"/>
<path d="" fill="#C1B827" transform="translate(0,0)"/>
<path d="" fill="#C5BA26" transform="translate(0,0)"/>
<path d="" fill="#69623B" transform="translate(0,0)"/>
<path d="" fill="#555242" transform="translate(0,0)"/>
<path d="" fill="#4E4B45" transform="translate(0,0)"/>
<path d="" fill="#5A5957" transform="translate(0,0)"/>
<path d="" fill="#5F5D5C" transform="translate(0,0)"/>
<path d="" fill="#656360" transform="translate(0,0)"/>
</svg>
